# xmcd
#
# Track frame offsets:
#	150
#	17107
#	34160
#	50185
#	68588
#	90451
#	107696
#	128908
#	148157
#	166535
#	185001
#	202152
#	217183
#	236807
#	253464
#	271653
#	293626
#	308661
#	327113
#	339411
#
# Disc length: 4709 seconds
#
# Revision: 0
# Processed by: cddbd v1.5.1PL0 Copyright (c) Steve Scherf et al.
# Submitted via: EasyCDDAExtractor 8.0.2.1
#
DISCID=31126314
DTITLE=Various Artist - Essential R&B - CD 1
DYEAR=2004
DGENRE=R&B
TTITLE0=Eamon - F*** It (I Don't Want You Back)
TTITLE1=50 Cent - In Da Club
TTITLE2=J-Kwon - Tipsy
TTITLE3=Snoop Dogg - Beautiful (Featuring Pharell)
TTITLE4=Jc Chasez - Blowin' Me Up (With Her Love)
TTITLE5=Blu Cantrell - Breathe (Featuring Sean Paul)
TTITLE6=Justin Timberlake - Like I Love You
TTITLE7=Mystikal - Shake Ya Ass
TTITLE8=En Vogue - My Lovin'
TTITLE9=Q-Tip - Breathe And Stop
TTITLE10=Jay-Z - Hard Knock Life
TTITLE11=2 Play - It Can't Be Right (Featuring Raghav and Naila Boss)
TTITLE12=Ice Cube - You Can Do It
TTITLE13=SWV - Right Here
TTITLE14=Tupac - California Love (Featuring Dr. Dre and Roger Troutman)
TTITLE15=Rob Base and Dj Ez Rock - It Takes Two
TTITLE16=Britney Spears - Toxic
TTITLE17=Usher - You Got It Bad
TTITLE18=Fatman Scoop - Be Faithful
TTITLE19=R Kelly - Ignition (Remix)
EXTD=
EXTT0=
EXTT1=
EXTT2=
EXTT3=
EXTT4=
EXTT5=
EXTT6=
EXTT7=
EXTT8=
EXTT9=
EXTT10=
EXTT11=
EXTT12=
EXTT13=
EXTT14=
EXTT15=
EXTT16=
EXTT17=
EXTT18=
EXTT19=
PLAYORDER=
